<svg xmlns="http://www.w3.org/2000/svg" xmlns:xlink="http://www.w3.org/1999/xlink" width="100.0" height="100.0" viewBox="0.3038990360722386 0.30958227603833466 0.7527765865412435 0.6299866408221303" preserveAspectRatio="xMinYMin meet"><g transform="matrix(1,0,0,-1,0,1.2491511928987995)"><g><path fill-rule="evenodd" fill="#66cc99" stroke="#555555" stroke-width="0.01505553173082487" opacity="0.6" d="M 0.39116673590391465,0.40494482847146895 L 0.39394308500415137,0.3550219691215317 L 0.34402022565421414,0.352245620021295 L 0.3412438765539774,0.40216847937123223 L 0.39116673590391465,0.40494482847146895 z" /><path fill-rule="evenodd" fill="#66cc99" stroke="#555555" stroke-width="0.01505553173082487" opacity="0.6" d="M 0.5191019373219221,0.3891996740223117 L 0.5208699909022607,0.3392309439350156 L 0.47090126081496464,0.337462890354677 L 0.46913320723462604,0.3874316204419731 L 0.5191019373219221,0.3891996740223117 z" /><path fill-rule="evenodd" fill="#66cc99" stroke="#555555" stroke-width="0.01505553173082487" opacity="0.6" d="M 0.9042969338846915,0.5714330383244863 L 0.9047413724763927,0.5214350136201222 L 0.8547433477720286,0.5209905750284209 L 0.8542989091803274,0.570988599732785 L 0.9042969338846915,0.5714330383244863 z" /><path fill-rule="evenodd" fill="#66cc99" stroke="#555555" stroke-width="0.01505553173082487" opacity="0.6" d="M 1.020578538822008,0.5712646197359166 L 1.0287493259042904,0.5219367550096181 L 0.9794214611779919,0.5137659679273359 L 0.9712506740957096,0.5630938326536343 L 1.020578538822008,0.5712646197359166 z" /><path fill-rule="evenodd" fill="#66cc99" stroke="#555555" stroke-width="0.01505553173082487" opacity="0.6" d="M 0.3817322515843214,0.5505646375681736 L 0.3839088622016142,0.5006120363724331 L 0.3339562610058738,0.49843542575514027 L 0.331779650388581,0.5483880269508807 L 0.3817322515843214,0.5505646375681736 z" /><path fill-rule="evenodd" fill="#66cc99" stroke="#555555" stroke-width="0.01505553173082487" opacity="0.6" d="M 0.7312628432669541,0.6268272929141381 L 0.7371349452021521,0.5771733059759008 L 0.6874809582639148,0.5713012040407028 L 0.6816088563287168,0.6209551909789401 L 0.7312628432669541,0.6268272929141381 z" /><path fill-rule="evenodd" fill="#66cc99" stroke="#555555" stroke-width="0.01505553173082487" opacity="0.6" d="M 0.8973555158577573,0.7448995651257259 L 0.905635725950422,0.6955899502334827 L 0.8563261110581788,0.687309740140818 L 0.8480459009655141,0.7366193550330612 L 0.8973555158577573,0.7448995651257259 z" /><path fill-rule="evenodd" fill="#66cc99" stroke="#555555" stroke-width="0.01505553173082487" opacity="0.6" d="M 1.0205145679254437,0.7449970849292579 L 1.0287950082971398,0.6956875087066742 L 0.9794854320745563,0.6874070683349779 L 0.97120499170286,0.7367166445575616 L 1.0205145679254437,0.7449970849292579 z" /><path fill-rule="evenodd" fill="#66cc99" stroke="#555555" stroke-width="0.01505553173082487" opacity="0.6" d="M 0.38211689674876853,0.6727285127886014 L 0.3835061505401665,0.6227478167760099 L 0.3335254545275749,0.6213585629846119 L 0.33213620073617695,0.6713392589972034 L 0.38211689674876853,0.6727285127886014 z" /><path fill-rule="evenodd" fill="#66cc99" stroke="#555555" stroke-width="0.01505553173082487" opacity="0.6" d="M 0.7367393405643228,0.9116626410063706 L 0.7450178393102291,0.8623527387704706 L 0.6957079370743291,0.8540742400245642 L 0.6874294383284227,0.9033841422604643 L 0.7367393405643228,0.9116626410063706 z" /><path fill-rule="evenodd" fill="#66cc99" stroke="#555555" stroke-width="0.01505553173082487" opacity="0.6" d="M 0.8975354943270667,0.9116883025441226 L 0.9058157845709379,0.8623787011111638 L 0.8565061831379791,0.8540984108672925 L 0.8482258928941079,0.9034080123002514 L 0.8975354943270667,0.9116883025441226 z" /></g></g></svg>