<svg xmlns="http://www.w3.org/2000/svg" xmlns:xlink="http://www.w3.org/1999/xlink" width="100.0" height="100.0" viewBox="0.4037304402576145 0.4016888256752298 0.6487445275268922 0.5927397640214733" preserveAspectRatio="xMinYMin meet"><g transform="matrix(1,0,0,-1,0,1.396117415371933)"><g><path fill-rule="evenodd" fill="#66cc99" stroke="#555555" stroke-width="0.012974890550537844" opacity="0.6" d="M 0.4777519660904695,0.4785286516215643 L 0.4785297125014571,0.42853470088229795 L 0.4285357617621907,0.42775695447131035 L 0.4277580153512031,0.4777509052105767 L 0.4777519660904695,0.4785286516215643 z" /><path fill-rule="evenodd" fill="#66cc99" stroke="#555555" stroke-width="0.012974890550537844" opacity="0.6" d="M 0.6109839840624484,0.48057034981602026 L 0.6161003990125705,0.43083281571894055 L 0.5663628649154907,0.4257164007688184 L 0.5612464499653685,0.4754539348658981 L 0.6109839840624484,0.48057034981602026 z" /><path fill-rule="evenodd" fill="#66cc99" stroke="#555555" stroke-width="0.012974890550537844" opacity="0.6" d="M 0.8526040008617438,0.6374138683732822 L 0.8604259968580296,0.5880294945427467 L 0.811041623027494,0.5802074985464609 L 0.8032196270312083,0.6295918723769964 L 0.8526040008617438,0.6374138683732822 z" /><path fill-rule="evenodd" fill="#66cc99" stroke="#555555" stroke-width="0.012974890550537844" opacity="0.6" d="M 1.0209939479157375,0.6305942237339829 L 1.0284473926909181,0.5811528831273273 L 0.9790060520842625,0.5736994383521467 L 0.9715526073090819,0.6231407789588023 L 1.0209939479157375,0.6305942237339829 z" /><path fill-rule="evenodd" fill="#66cc99" stroke="#555555" stroke-width="0.012974890550537844" opacity="0.6" d="M 0.6295350593029558,0.804113140626745 L 0.6374278448180961,0.7547400311762356 L 0.5880547353675867,0.7468472456610953 L 0.5801619498524464,0.7962203551116047 L 0.6295350593029558,0.804113140626745 z" /><path fill-rule="evenodd" fill="#66cc99" stroke="#555555" stroke-width="0.012974890550537844" opacity="0.6" d="M 0.7928907604054716,0.8007761324144232 L 0.8007834915184473,0.7514030142672142 L 0.7514103733712383,0.7435102831542385 L 0.7435176422582626,0.7928834013014475 L 0.7928907604054716,0.8007761324144232 z" /><path fill-rule="evenodd" fill="#66cc99" stroke="#555555" stroke-width="0.012974890550537844" opacity="0.6" d="M 0.9118014870991458,0.7472398918490585 L 0.9119886161921067,0.697240242023259 L 0.8619889663663072,0.697053112930298 L 0.8618018372733462,0.7470527627560976 L 0.9118014870991458,0.7472398918490585 z" /><path fill-rule="evenodd" fill="#66cc99" stroke="#555555" stroke-width="0.012974890550537844" opacity="0.6" d="M 1.025,0.7471473985289557 L 1.025,0.6971473985289557 L 0.975,0.6971473985289557 L 0.975,0.7471473985289557 L 1.025,0.7471473985289557 z" /><path fill-rule="evenodd" fill="#66cc99" stroke="#555555" stroke-width="0.012974890550537844" opacity="0.6" d="M 0.6300614440506331,0.9704010146031146 L 0.637069634149739,0.920894598134794 L 0.5875632176814185,0.9138864080356881 L 0.5805550275823126,0.9633928245040086 L 0.6300614440506331,0.9704010146031146 z" /><path fill-rule="evenodd" fill="#66cc99" stroke="#555555" stroke-width="0.012974890550537844" opacity="0.6" d="M 0.8003121407977024,0.9673119541336613 L 0.8006454716619055,0.9173130652406573 L 0.7506465827689014,0.9169797343764542 L 0.7503132519046983,0.9669786232694583 L 0.8003121407977024,0.9673119541336613 z" /><path fill-rule="evenodd" fill="#66cc99" stroke="#555555" stroke-width="0.012974890550537844" opacity="0.6" d="M 0.965152412140485,0.9689938752624027 L 0.9689857735838457,0.9191410384319417 L 0.9191329367533848,0.915307676988581 L 0.915299575310024,0.9651605138190419 L 0.965152412140485,0.9689938752624027 z" /></g></g></svg>