<svg xmlns="http://www.w3.org/2000/svg" xmlns:xlink="http://www.w3.org/1999/xlink" width="100.0" height="100.0" viewBox="0.4501743408789658 0.3372016013282146 0.6795390500903169 0.7447650028656914" preserveAspectRatio="xMinYMin meet"><g transform="matrix(1,0,0,-1,0,1.4191682055221206)"><g><path fill-rule="evenodd" fill="#ff3333" stroke="#555555" stroke-width="0.014895300057313828" opacity="0.6" d="M 0.6775177035159137,0.6855072698695595 L 0.6873234513355428,0.48574779622763714 L 0.4875639776936205,0.47594204840800797 L 0.4777582298739914,0.6757015220499303 L 0.6775177035159137,0.6855072698695595 z" /><path fill-rule="evenodd" fill="#ff3333" stroke="#555555" stroke-width="0.014895300057313828" opacity="0.6" d="M 0.8651008805664663,0.5651487959081047 L 0.865464516729752,0.36514912648652603 L 0.6654648473081733,0.3647854903232402 L 0.6651012111448876,0.5647851597448189 L 0.8651008805664663,0.5651487959081047 z" /><path fill-rule="evenodd" fill="#ff3333" stroke="#555555" stroke-width="0.014895300057313828" opacity="0.6" d="M 0.9757212755111438,0.5997991608658275 L 0.9973257342725262,0.4009694664999513 L 0.7984960399066502,0.3793650077385689 L 0.7768915811452678,0.5781947021044451 L 0.9757212755111438,0.5997991608658275 z" /><path fill-rule="evenodd" fill="#ff3333" stroke="#555555" stroke-width="0.014895300057313828" opacity="0.6" d="M 1.0921677050070235,0.628310879028196 L 1.1021295019742572,0.4285591265923698 L 0.902377749538431,0.4185973296251361 L 0.8924159525711973,0.6183490820609624 L 1.0921677050070235,0.628310879028196 z" /><path fill-rule="evenodd" fill="#ff3333" stroke="#555555" stroke-width="0.014895300057313828" opacity="0.6" d="M 0.6827449712007938,0.8659973374381803 L 0.6841995038329338,0.6660026266710651 L 0.4842047930658187,0.6645480940389251 L 0.4827502604336786,0.8645428048060403 L 0.6827449712007938,0.8659973374381803 z" /><path fill-rule="evenodd" fill="#ff3333" stroke="#555555" stroke-width="0.014895300057313828" opacity="0.6" d="M 0.8554971586850442,0.8742107703793833 L 0.8742240100611041,0.6750894379271848 L 0.6751026776089055,0.6563625865511249 L 0.6563758262328456,0.8554839190033234 L 0.8554971586850442,0.8742107703793833 z" /><path fill-rule="evenodd" fill="#ff3333" stroke="#555555" stroke-width="0.014895300057313828" opacity="0.6" d="M 0.9790309284070109,0.8205875613304283 L 1.0023813621395903,0.6219553453016571 L 0.803749146110819,0.5986049115690777 L 0.7803987123782397,0.7972371275978489 L 0.9790309284070109,0.8205875613304283 z" /><path fill-rule="evenodd" fill="#ff3333" stroke="#555555" stroke-width="0.014895300057313828" opacity="0.6" d="M 1.096359516682552,0.8104980889497747 L 1.0981776734570103,0.610506353355667 L 0.8981859378629028,0.6086881965812084 L 0.8963677810884442,0.8086799321753161 L 1.096359516682552,0.8104980889497747 z" /><path fill-rule="evenodd" fill="#ff3333" stroke="#555555" stroke-width="0.014895300057313828" opacity="0.6" d="M 0.6830983400469018,1.0452248788868523 L 0.6838256111713706,0.8452262011994447 L 0.4838269334839631,0.8444989300749759 L 0.4830996623594942,1.0444976077623835 L 0.6830983400469018,1.0452248788868523 z" /><path fill-rule="evenodd" fill="#ff3333" stroke="#555555" stroke-width="0.014895300057313828" opacity="0.6" d="M 0.8641811512489189,1.0477766718321861 L 0.866362926155262,0.8477885725406081 L 0.6663748268636841,0.845606797634265 L 0.664193051957341,1.045594896925843 L 0.8641811512489189,1.0477766718321861 z" /><path fill-rule="evenodd" fill="#ff3333" stroke="#555555" stroke-width="0.014895300057313828" opacity="0.6" d="M 1.0392288325049057,1.0543827151988805 L 1.0543574345322584,0.8549557225406698 L 0.8549304418740475,0.8398271205133173 L 0.8398018398466951,1.0392541131715278 L 1.0392288325049057,1.0543827151988805 z" /></g></g></svg>