<svg xmlns="http://www.w3.org/2000/svg" xmlns:xlink="http://www.w3.org/1999/xlink" width="100.0" height="100.0" viewBox="0.045778949740559 0.012859399348842497 0.8451214698495547 0.8134952761652595" preserveAspectRatio="xMinYMin meet"><g transform="matrix(1,0,0,-1,0,0.8392140748629445)"><g><path fill-rule="evenodd" fill="#ff3333" stroke="#555555" stroke-width="0.016902429396991093" opacity="0.6" d="M 0.38291868694130854,0.6473447161494084 L 0.3928161830980203,0.5478357237425515 L 0.29330719069116357,0.5379382275858398 L 0.2834096945344518,0.6374472199926966 L 0.38291868694130854,0.6473447161494084 z" /><path fill-rule="evenodd" fill="#ff3333" stroke="#555555" stroke-width="0.016902429396991093" opacity="0.6" d="M 0.5266093632225313,0.2451976825452152 L 0.5267746131303399,0.14519781908296855 L 0.42677474966809326,0.14503256917516003 L 0.4266094997602847,0.24503243263740668 L 0.5266093632225313,0.2451976825452152 z" /><path fill-rule="evenodd" fill="#ff3333" stroke="#555555" stroke-width="0.016902429396991093" opacity="0.6" d="M 0.306201734877057,0.7950538803344889 L 0.31213037689024786,0.695229779016824 L 0.21230627557258294,0.689301137003633 L 0.20637763355939207,0.7891252383212979 L 0.306201734877057,0.7950538803344889 z" /><path fill-rule="evenodd" fill="#ff3333" stroke="#555555" stroke-width="0.016902429396991093" opacity="0.6" d="M 0.20378873006780476,0.5112067902448301 L 0.20781526372610978,0.4112878879955632 L 0.10789636147684298,0.40726135433725824 L 0.10386982781853796,0.5071802565865251 L 0.20378873006780476,0.5112067902448301 z" /><path fill-rule="evenodd" fill="#ff3333" stroke="#555555" stroke-width="0.016902429396991093" opacity="0.6" d="M 0.17704807279062798,0.14664515164952413 L 0.17956470204124061,0.04667682377906827 L 0.07959637417078477,0.04416019452845563 L 0.07707974492017214,0.1441285223989115 L 0.17704807279062798,0.14664515164952413 z" /><path fill-rule="evenodd" fill="#ff3333" stroke="#555555" stroke-width="0.016902429396991093" opacity="0.6" d="M 0.4380222465466584,0.7443306090320909 L 0.44172497726507604,0.6443991836183258 L 0.34179355185131094,0.6406964528999082 L 0.3380908211328933,0.7406278783136733 L 0.4380222465466584,0.7443306090320909 z" /><path fill-rule="evenodd" fill="#ff3333" stroke="#555555" stroke-width="0.016902429396991093" opacity="0.6" d="M 0.6558791735853876,0.17438353657951203 L 0.6576853626285578,0.07439984950436793 L 0.5577016755534138,0.0725936604611978 L 0.5558954865102436,0.1725773475363419 L 0.6558791735853876,0.17438353657951203 z" /><path fill-rule="evenodd" fill="#ff3333" stroke="#555555" stroke-width="0.016902429396991093" opacity="0.6" d="M 0.6819289445982609,0.7241558400985451 L 0.6906936456664236,0.6245406805334179 L 0.5910784861012964,0.6157759794652553 L 0.5823137850331338,0.7153911390303824 L 0.6819289445982609,0.7241558400985451 z" /><path fill-rule="evenodd" fill="#ff3333" stroke="#555555" stroke-width="0.016902429396991093" opacity="0.6" d="M 0.789153808452363,0.5797891229053084 L 0.7903001009619435,0.47979569305373027 L 0.6903066711103654,0.47864940054414984 L 0.6891603786007849,0.578642830395728 L 0.789153808452363,0.5797891229053084 z" /><path fill-rule="evenodd" fill="#ff3333" stroke="#555555" stroke-width="0.016902429396991093" opacity="0.6" d="M 0.5024309867508181,0.6035977435958912 L 0.5151808474144433,0.5044138686309649 L 0.4159969724495168,0.4916640079673398 L 0.40324711178589173,0.5908478829322661 L 0.5024309867508181,0.6035977435958912 z" /><path fill-rule="evenodd" fill="#ff3333" stroke="#555555" stroke-width="0.016902429396991093" opacity="0.6" d="M 0.8498495586821148,0.4580823366416315 L 0.8595996244105005,0.35855879059200485 L 0.7600760783608739,0.3488087248636191 L 0.7503260126324881,0.44833227091324573 L 0.8498495586821148,0.4580823366416315 z" /></g></g></svg>