<svg xmlns="http://www.w3.org/2000/svg" xmlns:xlink="http://www.w3.org/1999/xlink" width="100.0" height="100.0" viewBox="-0.36263206157324557 -0.36263214352963213 1.7911322285547095 1.6244656322546374" preserveAspectRatio="xMinYMin meet"><g transform="matrix(1,0,0,-1,0,0.899201345195373)"><g><path fill-rule="evenodd" fill="#ff3333" stroke="#555555" stroke-width="0.035822644571094193" opacity="0.6" d="M 0.6885141220500867,0.862162190855756 L 0.862162299717017,-0.12264556215645206 L -0.1226454532951911,-0.29629373982338236 L -0.2962936309621214,0.6885140131888257 L 0.6885141220500867,0.862162190855756 z" /><path fill-rule="evenodd" fill="#ff3333" stroke="#555555" stroke-width="0.035822644571094193" opacity="0.6" d="M 0.9444536041314205,0.788029335873415 L 0.9546967575322488,-0.21191820165463315 L -0.04525077999579928,-0.2221613550554613 L -0.05549393339662746,0.7777861824725868 L 0.9444536041314205,0.788029335873415 z" /><path fill-rule="evenodd" fill="#ff3333" stroke="#555555" stroke-width="0.035822644571094193" opacity="0.6" d="M 1.005510205955386,0.8621621552585375 L 1.1791583836223165,-0.12264559775367051 L 0.19435063061010843,-0.2962937754206008 L 0.020702452943178115,0.6885139775916072 L 1.005510205955386,0.8621621552585375 z" /><path fill-rule="evenodd" fill="#ff3333" stroke="#555555" stroke-width="0.035822644571094193" opacity="0.6" d="M 1.1884663907333346,0.8621620178367176 L 1.3621145684002651,-0.12264573517549038 L 0.37730681538805694,-0.2962939128424207 L 0.20365863772112663,0.6885138401697873 L 1.1884663907333346,0.8621620178367176 z" /><path fill-rule="evenodd" fill="#ff3333" stroke="#555555" stroke-width="0.035822644571094193" opacity="0.6" d="M 0.6885139221261739,1.028829246194377 L 0.8621620997931042,0.044021493182169136 L -0.1226456532191038,-0.12962668448476122 L -0.2962938308860341,0.8551810685274468 L 0.6885139221261739,1.028829246194377 z" /><path fill-rule="evenodd" fill="#ff3333" stroke="#555555" stroke-width="0.035822644571094193" opacity="0.6" d="M 0.8551810064392752,1.0288279183353464 L 1.0288291841062056,0.044020165323138294 L 0.044021431093997435,-0.12962801234379207 L -0.12962674657293288,0.855179740668416 L 0.8551810064392752,1.0288279183353464 z" /><path fill-rule="evenodd" fill="#ff3333" stroke="#555555" stroke-width="0.035822644571094193" opacity="0.6" d="M 1.0218470398065909,1.0125612986729025 L 1.1954952174735214,0.02775354566069449 L 0.2106874644613133,-0.1458946320062358 L 0.037039286794382995,0.8389131210059722 L 1.0218470398065909,1.0125612986729025 z" /><path fill-rule="evenodd" fill="#ff3333" stroke="#555555" stroke-width="0.035822644571094193" opacity="0.6" d="M 1.1885137586273218,1.0288292147363702 L 1.3621619362942523,0.04402146172416216 L 0.37735418328204423,-0.1296267159427682 L 0.20370600561511393,0.8551810370694398 L 1.1885137586273218,1.0288292147363702 z" /><path fill-rule="evenodd" fill="#ff3333" stroke="#555555" stroke-width="0.035822644571094193" opacity="0.6" d="M 0.6885141895192332,1.1791573252259506 L 0.8621623671861635,0.19434957221374255 L -0.1226453858260446,0.020701394546812246 L -0.2962935634929749,1.0055091475590203 L 0.6885141895192332,1.1791573252259506 z" /><path fill-rule="evenodd" fill="#ff3333" stroke="#555555" stroke-width="0.035822644571094193" opacity="0.6" d="M 0.8727294797005306,1.1664485514270189 L 1.016136724181333,0.1767847892176393 L 0.02647296197195341,0.03337754473683696 L -0.116934282508849,1.0230413069462165 L 0.8727294797005306,1.1664485514270189 z" /><path fill-rule="evenodd" fill="#ff3333" stroke="#555555" stroke-width="0.035822644571094193" opacity="0.6" d="M 1.0218471913017297,1.1954952580377936 L 1.1954953689686603,0.21068750502558548 L 0.2106876159564522,0.03703932735865517 L 0.03703943828952187,1.0218470803708632 L 1.0218471913017297,1.1954952580377936 z" /></g></g></svg>