<svg xmlns="http://www.w3.org/2000/svg" xmlns:xlink="http://www.w3.org/1999/xlink" width="100.0" height="100.0" viewBox="0.18212717507213672 0.021571002993286674 0.9119791360313334 1.0725071686642527" preserveAspectRatio="xMinYMin meet"><g transform="matrix(1,0,0,-1,0,1.1156491746508261)"><g><path fill-rule="evenodd" fill="#66cc99" stroke="#555555" stroke-width="0.021450143373285054" opacity="0.6" d="M 1.0348747911735519,0.7650489534371918 L 1.0543838233751646,0.6669704253968687 L 0.9563052953348415,0.6474613931952558 L 0.9367962631332286,0.7455399212355789 L 1.0348747911735519,0.7650489534371918 z" /><path fill-rule="evenodd" fill="#66cc99" stroke="#555555" stroke-width="0.021450143373285054" opacity="0.6" d="M 0.575685167869529,0.40245138634988575 L 0.5951942000711419,0.30437285830956273 L 0.49711567203081874,0.2848638261079499 L 0.4776066398292059,0.38294235414827293 L 0.575685167869529,0.40245138634988575 z" /><path fill-rule="evenodd" fill="#66cc99" stroke="#555555" stroke-width="0.021450143373285054" opacity="0.6" d="M 0.7687509096176004,0.7827038196096787 L 0.7882599418192133,0.6846252915693556 L 0.6901814137788902,0.6651162593677427 L 0.6706723815772773,0.7631947874080658 L 0.7687509096176004,0.7827038196096787 z" /><path fill-rule="evenodd" fill="#66cc99" stroke="#555555" stroke-width="0.021450143373285054" opacity="0.6" d="M 0.9596984788683572,1.0543525141728511 L 0.9792075110699702,0.956273986132528 L 0.881128983029647,0.9367649539309152 L 0.8616199508280341,1.0348434819712382 L 0.9596984788683572,1.0543525141728511 z" /><path fill-rule="evenodd" fill="#66cc99" stroke="#555555" stroke-width="0.021450143373285054" opacity="0.6" d="M 0.4248762140893365,0.8684877305514025 L 0.44438524629094933,0.7704092025110794 L 0.3463067182506263,0.7509001703094664 L 0.3267976860490135,0.8489786983497896 L 0.4248762140893365,0.8684877305514025 z" /><path fill-rule="evenodd" fill="#66cc99" stroke="#555555" stroke-width="0.021450143373285054" opacity="0.6" d="M 0.41827134245032593,0.1788810509635282 L 0.43778037465193875,0.08080252292320515 L 0.33970184661161573,0.061293490721592334 L 0.3201928144100029,0.15937201876191537 L 0.41827134245032593,0.1788810509635282 z" /><path fill-rule="evenodd" fill="#66cc99" stroke="#555555" stroke-width="0.021450143373285054" opacity="0.6" d="M 0.43251279416366295,0.3777963992120651 L 0.45202182636527577,0.27971787117174207 L 0.35394329832495275,0.26020883897012925 L 0.33443426612333993,0.3582873670104523 L 0.43251279416366295,0.3777963992120651 z" /><path fill-rule="evenodd" fill="#66cc99" stroke="#555555" stroke-width="0.021450143373285054" opacity="0.6" d="M 0.3199281908407654,0.9936761989473136 L 0.3394372230423782,0.8955976709069905 L 0.2413586950020552,0.8760886387053776 L 0.22184966280044238,0.9741671667457007 L 0.3199281908407654,0.9936761989473136 z" /><path fill-rule="evenodd" fill="#66cc99" stroke="#555555" stroke-width="0.021450143373285054" opacity="0.6" d="M 0.5845898839950965,0.996745263339249 L 0.6040989161967094,0.8986667352989258 L 0.5060203881563863,0.8791577030973129 L 0.48651135595477346,0.977236231137636 L 0.5845898839950965,0.996745263339249 z" /><path fill-rule="evenodd" fill="#66cc99" stroke="#555555" stroke-width="0.021450143373285054" opacity="0.6" d="M 0.6942540460142279,0.5878792839444203 L 0.7137630782158408,0.4898007559040973 L 0.6156845501755177,0.47029172370248434 L 0.5961755179739048,0.5683702517428074 L 0.6942540460142279,0.5878792839444203 z" /><path fill-rule="evenodd" fill="#66cc99" stroke="#555555" stroke-width="0.021450143373285054" opacity="0.6" d="M 0.7248240345854016,1.0543556839292338 L 0.7443330667870145,0.9562771558889107 L 0.6462545387466914,0.9367681236872979 L 0.6267455065450784,1.034846651727621 L 0.7248240345854016,1.0543556839292338 z" /></g></g></svg>