<svg xmlns="http://www.w3.org/2000/svg" xmlns:xlink="http://www.w3.org/1999/xlink" width="100.0" height="100.0" viewBox="0.19202692568885876 0.19021062970182429 0.7086715355184079 0.5279740409279163" preserveAspectRatio="xMinYMin meet"><g transform="matrix(1,0,0,-1,0,0.9083953003315648)"><g><path fill-rule="evenodd" fill="#66cc99" stroke="#555555" stroke-width="0.014173430710368157" opacity="0.6" d="M 0.31961603511121933,0.32565594134931336 L 0.32565594134931336,0.22583851034332608 L 0.2258385103433261,0.21979860410523205 L 0.21979860410523203,0.31961603511121933 L 0.31961603511121933,0.32565594134931336 z" /><path fill-rule="evenodd" fill="#66cc99" stroke="#555555" stroke-width="0.014173430710368157" opacity="0.6" d="M 0.4992233887972308,0.32753495641299285 L 0.5093531382311747,0.2280493384754964 L 0.40986752029367823,0.21791958904155256 L 0.3997377708597344,0.317405206979049 L 0.4992233887972308,0.32753495641299285 z" /><path fill-rule="evenodd" fill="#66cc99" stroke="#555555" stroke-width="0.014173430710368157" opacity="0.6" d="M 0.6837739796761441,0.3251892527412806 L 0.6888256163776442,0.22531692941476505 L 0.5889532930511286,0.22026529271326484 L 0.5839016563496285,0.32013761603978036 L 0.6837739796761441,0.3251892527412806 z" /><path fill-rule="evenodd" fill="#66cc99" stroke="#555555" stroke-width="0.014173430710368157" opacity="0.6" d="M 0.8610039834952292,0.32899682184463197 L 0.8744513672991774,0.22990510741386175 L 0.7753596528684072,0.21645772360991347 L 0.7619122690644591,0.3155494380406837 L 0.8610039834952292,0.32899682184463197 z" /><path fill-rule="evenodd" fill="#66cc99" stroke="#555555" stroke-width="0.014173430710368157" opacity="0.6" d="M 0.3224188330473849,0.5048520031544841 L 0.32303382133630226,0.40485389422534235 L 0.22303571240716052,0.404238905936425 L 0.22242072411824315,0.5042370148655667 L 0.3224188330473849,0.5048520031544841 z" /><path fill-rule="evenodd" fill="#66cc99" stroke="#555555" stroke-width="0.014173430710368157" opacity="0.6" d="M 0.49804579274223354,0.5102923878850191 L 0.5102923878850192,0.4110451163486756 L 0.4110451163486756,0.39879852120589 L 0.39879852120589,0.4980457927422335 L 0.49804579274223354,0.5102923878850191 z" /><path fill-rule="evenodd" fill="#66cc99" stroke="#555555" stroke-width="0.014173430710368157" opacity="0.6" d="M 0.6818779712048717,0.5086605663346757 L 0.6904787481528576,0.4090311197042191 L 0.590849301522401,0.40043034275623335 L 0.5822485245744151,0.5000597893866899 L 0.6818779712048717,0.5086605663346757 z" /><path fill-rule="evenodd" fill="#66cc99" stroke="#555555" stroke-width="0.014173430710368157" opacity="0.6" d="M 0.8610341835168784,0.5107920080860096 L 0.8744283717223733,0.41169308921039427 L 0.775329452846758,0.3982989010048995 L 0.7619352646412632,0.4973978198805148 L 0.8610341835168784,0.5107920080860096 z" /><path fill-rule="evenodd" fill="#66cc99" stroke="#555555" stroke-width="0.014173430710368157" opacity="0.6" d="M 0.31783650929280083,0.6908168894939611 L 0.3271805258575975,0.5912543997981082 L 0.2276180361617446,0.5819103832333116 L 0.21827401959694795,0.6814728729291645 L 0.31783650929280083,0.6908168894939611 z" /><path fill-rule="evenodd" fill="#66cc99" stroke="#555555" stroke-width="0.014173430710368157" opacity="0.6" d="M 0.5000112257896716,0.6905195561247163 L 0.5087013743065345,0.5908978651194193 L 0.40907968330123756,0.5822077166025564 L 0.40038953478437456,0.6818294076078534 L 0.5000112257896716,0.6905195561247163 z" /><path fill-rule="evenodd" fill="#66cc99" stroke="#555555" stroke-width="0.014173430710368157" opacity="0.6" d="M 0.6800847657301543,0.6919375767216513 L 0.6919375767216513,0.5926425069971184 L 0.5926425069971184,0.5807896960056214 L 0.5807896960056214,0.6800847657301543 L 0.6800847657301543,0.6919375767216513 z" /></g></g></svg>